<?xml version="1.0" encoding="UTF-8" standalone="no"?>
<svg
   xmlns:dc="http://purl.org/dc/elements/1.1/"
   xmlns:cc="http://creativecommons.org/ns#"
   xmlns:rdf="http://www.w3.org/1999/02/22-rdf-syntax-ns#"
   xmlns:svg="http://www.w3.org/2000/svg"
   xmlns="http://www.w3.org/2000/svg"
   xmlns:sodipodi="http://sodipodi.sourceforge.net/DTD/sodipodi-0.dtd"
   xmlns:inkscape="http://www.inkscape.org/namespaces/inkscape"
   version="1.1"
   id="svg10"
   xml:space="preserve"
   width="594.53082"
   height="216.27083"
   viewBox="0 0 594.53082 216.27083"
   sodipodi:docname="OMC_logo.svg"
   inkscape:version="1.0.1 (3bc2e813f5, 2020-09-07)"><metadata
     id="metadata16"><rdf:RDF><cc:Work
         rdf:about=""><dc:format>image/svg+xml</dc:format><dc:type
           rdf:resource="http://purl.org/dc/dcmitype/StillImage" /><dc:title></dc:title></cc:Work></rdf:RDF></metadata><defs
     id="defs14"><clipPath
       clipPathUnits="userSpaceOnUse"
       id="clipPath36"><path
         d="M 28.109,137.387 H 445.625 V 24.246 H 28.109 Z M 74.848,0.02 C 52.832,0.023 34.891,7.332 21.027,21.949 7.16,36.566 0.23,55.613 0.23,79.098 c 0,24.789 7.04,44.843 21.122,60.156 14.078,15.312 32.73,22.969 55.961,22.969 21.937,0 39.683,-7.328 53.23,-21.985 13.543,-14.656 20.312,-33.98 20.316,-57.968 C 150.855,57.621 143.836,37.75 129.793,22.66 115.746,7.566 97.43,0.023 74.848,0.02 Z m 1.5,131.796 C 64.195,131.813 54.547,127.164 47.402,117.871 40.25,108.57 36.676,96.266 36.68,80.957 36.676,65.422 40.25,53.137 47.402,44.098 54.547,35.055 63.91,30.531 75.492,30.535 c 11.934,-0.004 21.403,4.391 28.41,13.18 7,8.785 10.504,20.98 10.508,36.586 -0.004,16.258 -3.398,28.91 -10.187,37.953 -6.789,9.039 -16.082,13.559 -27.875,13.562 z"
         id="path34" /></clipPath><clipPath
       clipPathUnits="userSpaceOnUse"
       id="clipPath44"><path
         d="M 0,0 H 446 V 163 H 0 Z"
         id="path42" /></clipPath></defs><sodipodi:namedview
     pagecolor="#ffffff"
     bordercolor="#666666"
     borderopacity="1"
     objecttolerance="10"
     gridtolerance="10"
     guidetolerance="10"
     inkscape:pageopacity="0"
     inkscape:pageshadow="2"
     inkscape:window-width="1368"
     inkscape:window-height="860"
     id="namedview12"
     showgrid="false"
     inkscape:zoom="2.0032603"
     inkscape:cx="297.26541"
     inkscape:cy="108.13541"
     inkscape:window-x="-6"
     inkscape:window-y="-6"
     inkscape:window-maximized="1"
     inkscape:current-layer="g18" /><g
     id="g18"
     inkscape:groupmode="layer"
     inkscape:label="OMC_logo"
     transform="matrix(1.3333333,0,0,-1.3333333,0,216.27083)"><g
       id="g20"><text
         transform="matrix(0.978965,0,0,-1,-7.744928,2.734376)"
         style="font-variant:normal;font-weight:bold;font-size:224px;font-family:'Nirmala UI Bold';-inkscape-font-specification:NirmalaUI-Bold;writing-mode:lr-tb;fill:#204a87;fill-opacity:1;fill-rule:nonzero;stroke:none"
         id="text24"><tspan
           x="0"
           y="0"
           id="tspan22">O</tspan></text><text
         transform="matrix(1,0,0,-1,129.68482,2.679689)"
         style="font-variant:normal;font-weight:bold;font-size:224px;font-family:'Nirmala UI Bold';-inkscape-font-specification:NirmalaUI-Bold;writing-mode:lr-tb;fill:#204a87;fill-opacity:1;fill-rule:nonzero;stroke:none"
         id="text28"><tspan
           x="0 185.92"
           y="0"
           sodipodi:role="line"
           id="tspan26">MC</tspan></text></g><g
       id="g30"><g
         id="g32"
         clip-path="url(#clipPath36)"><g
           id="g38"
           transform="translate(0,-0.796875)"><g
             id="g40" /><g
             id="g62"><g
               clip-path="url(#clipPath44)"
               id="g60"><g
                 id="g58"><g
                   transform="matrix(1,0,0,-1,0,163)"
                   id="g48"><path
                     d="m 0.633,97.328 c 12,0 20,-32 32,-32 12,0 20,32 32,32 12,0 20,-32 32,-32 12,0 20,32 32,32 12,0 20,-56 32,-56 12,0 20,80 32,80 12,0 22,-82 32,-80 8.207,0.043 20,80 32,80 12,0 20,-80 32,-80 12,0 20,80 32,80 12,0 20,-56 32,-56 12,0 20,32 32,32 12,0 20,-32 32,-32 12,0 20,32 32,32"
                     style="fill:none;stroke:#f57900;stroke-width:8;stroke-linecap:butt;stroke-linejoin:miter;stroke-miterlimit:4;stroke-dasharray:none;stroke-opacity:1"
                     id="path46" /></g><g
                   transform="matrix(1,0,0,-1,0,163)"
                   id="g52"><path
                     d="m 0.633,89.328 c 12,0 20,-16 32,-16 12,0 20,36 32,36 12,0 20,-40 32,-40 12,0 20,20 32,20 12,0 19.547,-55.988 31.547,-55.988 12,0 20,100 32,100 12,0 20,-84 32,-84 12,0 20,64 32,64 12,0 20,-80 32,-80 12,0 20.8,81.601 32.8,81.601 12,0 19.653,-49.613 31.653,-49.613 12,0 20,32 32,32 12,0 20,-32 32,-32 12,0 20,32 32,32"
                     style="fill:none;stroke:#204a87;stroke-width:8;stroke-linecap:butt;stroke-linejoin:miter;stroke-miterlimit:4;stroke-dasharray:none;stroke-opacity:1"
                     id="path50" /></g><g
                   transform="matrix(1,0,0,-1,0,163)"
                   id="g56"><path
                     d="m 0.633,89.164 c 12,0 20,-16 32,-16 12,0 20,36 32,36 12,0 20,-40 32,-40 12,0 20,20 32,20 12,0 19.547,-55.992 31.547,-55.992 12,0 20,100 32,100 12,0 20,-84 32,-84 12,0 20,64 32,64 12,0 20,-80 32,-80 12,0 20.8,81.601 32.8,81.601 12,0 19.653,-49.609 31.653,-49.609 12,0 20,32 32,32 12,0 20,-32 32,-32 12,0 20,32 32,32"
                     style="fill:none;stroke:#ffffff;stroke-width:4;stroke-linecap:butt;stroke-linejoin:miter;stroke-miterlimit:4;stroke-dasharray:none;stroke-opacity:1"
                     id="path54" /></g></g></g></g></g></g></g><g
       id="g64"><path
         d="M 0,75.035 H 1.07 V 71.043 H 0 Z"
         style="fill:#ffffff;fill-opacity:1;fill-rule:nonzero;stroke:none"
         id="path66" /></g></g></svg>
